<svg xmlns="http://www.w3.org/2000/svg" viewBox="0 0 100 100">
  <defs>
    <linearGradient id="grad1" x1="0%" y1="0%" x2="100%" y2="100%">
      <stop offset="0%" style="stop-color:#06b6d4;stop-opacity:1" />
      <stop offset="100%" style="stop-color:#10b981;stop-opacity:1" />
    </linearGradient>
    <linearGradient id="grad2" x1="0%" y1="0%" x2="100%" y2="100%">
      <stop offset="0%" style="stop-color:#0ea5e9;stop-opacity:1" />
      <stop offset="100%" style="stop-color:#34d399;stop-opacity:1" />
    </linearGradient>
  </defs>
  <!-- Background circle -->
  <circle cx="50" cy="50" r="45" fill="url(#grad1)" opacity="0.9"/>
  <!-- Chat bubble -->
  <path d="M25 35 Q25 25 35 25 L65 25 Q75 25 75 35 L75 55 Q75 65 65 65 L45 65 L35 75 L35 65 L35 65 Q25 65 25 55 Z" fill="white" opacity="0.95"/>
  <!-- Star/Astra symbol -->
  <path d="M50 32 L52 42 L62 42 L54 48 L57 58 L50 52 L43 58 L46 48 L38 42 L48 42 Z" fill="url(#grad2)"/>
</svg>
